<?xml version="1.0" encoding="UTF-8"?>
<svg id="Layer_2" data-name="Layer 2" xmlns="http://www.w3.org/2000/svg" viewBox="0 0 605.49 665.43">
  <defs>
    <style>
      .cls-1 {
        stroke-width: 0px;
      }
    </style>
  </defs>
  <g id="Layer_1-2" data-name="Layer 1">
    <g>
      <path class="cls-1" d="M176.63,578.04c-.4.77-.88,1.42-1.86,1.43-1.17,0-2.33.01-3.5.01-55.1,0-110.21,0-165.31-.02-1.46,0-2.97.34-4.73-.49-.34-6.13-.82-12.39-1-18.66-.38-13.65-.49-27.34,1.13-40.9,2.06-17.18,5.96-34.01,11.16-50.54,10.81-34.34,27.35-65.84,47.28-95.67,17-25.44,35.96-49.39,55.69-72.74,20.06-23.75,40.34-47.31,60.22-71.21,23.37-28.08,45.6-57.04,65.15-87.98,27.07-42.83,47.92-88.34,60.03-137.68.3-1.21.32-2.63,1.59-3.6,2.13.47,1.87,2.48,2.21,3.87,3.18,13.08,7.11,25.94,11.54,38.64,11.35,32.58,26.55,63.34,44.61,92.68,17.16,27.89,36.61,54.14,57.19,79.59,18.92,23.4,38.65,46.11,58.12,69.05,24.5,28.87,48.71,57.98,69.75,89.56,23.28,34.94,41.7,72.05,52.09,112.97,6.96,27.39,8.63,55.11,6.82,83.16-.2,3.13-.37,6.26-.55,9.29-1.32,1.09-2.71.64-3.98.64-52.44.03-104.88.03-157.32-.03-1.8,0-4.84,1.65-4.49-2.69h-7.62c-.28-7.04-.63-13.8-.73-20.57-.02-1.45-.16-2.29-1.35-3.33-1.43-1.24-2.37-2.96-2.44-5.17-.44-13.47-1-26.94-1.63-40.4-.08-1.6.6-2.82,1.32-4.63-5.89-.36-11.59-.71-17.16-1.05-.31-1.41.09-2.36.51-3.23,2.03-4.21.58-7.81-2.18-10.93-4.29-4.86-8.8-9.52-13.22-14.26-2.94-3.16-5.9-6.29-8.82-9.47-1.58-1.73-3.41-3.12-5.14-4.17-1.98-4.54-.4-8.61.69-12.73,4.77-18.12,9.53-36.25,14.37-54.66,3.52.15,4.38-2.14,4.85-4.98.49-2.93,1.28-5.8,1.92-8.58-3.03-3.45-6.41-4.43-10.81-3.4-4.98,1.17-10.13,1.61-15.73,2.45v-12.35c1.5-1.31,4.4.1,6.1-2.02.1-2.14-2.47-1.85-3.33-3.64,1.02-4.7,2.11-9.69,3.13-14.35,1.62-1.91,4.11-.88,5.6-2.35.26-2.48-1.88-2.62-3.16-3.32-11.39-6.19-22.82-12.3-34.24-18.41-39.69-21.25-79.37-42.51-119.08-63.71-2.14-1.14-3.1-2.52-3.42-4.96-1.18-9.06-2.69-18.08-3.91-27.14-.27-2.03-.95-3.46-2.78-4.32-.45-.21-.89-.46-1.32-.7q-6.59-3.73-12.52,1.01c-.78.62-1.43,1.29-2.62,1-3.3-.8-5.17,1.31-7.09,3.5-10.68,12.12-17.05,26.34-20.85,41.9-3.02,12.37-4.08,24.88-4.01,37.59.09,14.76,2.75,29.09,6.52,43.25.44,1.64.7,3.2.68,4.87-.15,12.15-.25,24.3-.46,36.45-.04,2.24.49,4.59-1.31,6.65-.61.7-.35,2.23-.34,3.39.02,2.43,1.56,4.76-.53,7.33-.9,1.1.45,2.87,2.55,3.37,1.93.45,3.4-.97,5.16-.91.99,1.79.51,3.47.5,5.07-.42,39.45-.87,78.9-1.36,118.34-.02,1.76.9,3.87-2.04,4.87-1.14.39-1.65,3.02-.47,4.41,1.27,1.51,1.18,2.95.89,4.51-1.03,1.25-2.73.09-3.89,1.44.35,1.65-1.55,3.98,1.72,5.18,1.05.38.45,2.11.31,3.45-3.17.8-6.68-.21-10.5,1.34,2.16,1.87,4.22,1.08,5.98,1.38,1.13.19,2.36-.12,3.48.11,1.62.34,3.09,1.54,1.81,3.09-1.98,2.4-.81,4.55-.16,6.27-.73,2.43-2.78,1.64-3.72,2.46-.91,1.2.76,1.89.39,2.63-.71,1.64-2.82.22-3.25,1.78.1,2.17,2.44.55,2.9,1.94Z"/>
      <path class="cls-1" d="M186.8,409.84c2.18-.29,3.79-.59,4.87-1.45,2.04-2.49-1.35-4.38-.43-6.11,1.13-2.13,1.34-4.34.79-6.24-2.11-7.36-.8-14.8-1.01-22.19-.21-7.45-.05-14.92-.05-22.74,5.22.08,6.56-3.19,8.08-6.93,7.18-17.7,12.95-35.85,18.04-54.23.22-.79.6-1.53.86-2.17,1.22-.62,2.05.03,2.89.45,20.31,10.23,40.62,20.47,60.92,30.72,4.99,2.52,5.08,2.61,2.57,7.64-1.23,2.47.18,4.48.58,6.46-.6,1.87-2.46,1.08-3.32,2.02-.48.93.58,1.4.6,2.51-7.3.93-14.7,1.58-22.17,3.99v40.46c-1.85,1.79-4.53.87-5.43,3.22.7,2.58,3.29,1.77,4.79,2.73,0,9.53.07,18.98-.02,28.44-.09,9.15-.59,18.3-.43,27.45.14,8.04-.84,15.9-2.37,23.74-3.31,16.95-6.66,33.89-9.99,50.83-.13.65-.1,1.57-.52,1.89-4.28,3.28-2.96,8.34-4.02,12.61-.79,3.19-.95,6.54-1.37,9.59-1.48,1.32-3.14.34-4.66,1.09-.81,2.8.09,5.84-.57,8.88-3.57,1.96-8.31-.88-11.59,2.51.46,1.28,1.86.49,2.67,1.37v22.97c-11.58,0-22.83.01-34.09-.02-.73,0-.97-.81-1.3-1.36.89-1.31,3.06.23,3.84-1.92-.81-1.26-2.48-.41-3.02-.88-1.62-1.12-.34-2.14-.73-3.24-.87-1.11-3.3-.37-3.7-2.79.47-1.74,2.43-3.53.19-5.94-1.25-1.35-.13-2.89,2.03-3.15,2.13-.25,4.29-.31,6.43-.48.76-.06,1.67.14,2.14-1.34-3.09-1.61-6.6-.49-9.74-1.23-.91-1.34-1.01-2.93.28-3.44,2.82-1.11,1.65-3.19,1.76-4.86-.77-1.71-2.59-.47-3.61-1.59-.26-1.39-.32-2.73.38-4.22.96-2.05,1.91-4.25-1.2-5.71-1.17-.55-.59-2.13-.58-3.24.22-27.62.46-55.25.73-82.87.12-12.15.31-24.29.46-36.44.02-1.48,0-2.96,0-4.8Z"/>
      <path class="cls-1" d="M372.18,454.61c-5.68-3.9-10.96-2.61-16.2-2.08-4.13.42-8.28.66-12.4,1.13-3.11.35-6.27.78-8.4,4.32-2.31-7.09-3.52-13.87-5.15-20.54-.15-.6-.04-1.33.13-1.94,3.52-12.22,7.07-24.44,10.56-36.47,16.27-.97,31.86-4.14,48.01-5.6-5.55,20.5-10.94,40.43-16.55,61.18Z"/>
      <path class="cls-1" d="M360.89,359.25c-2.84,3.54-2.81,6.63-.15,9.78.93,1.1,1.33,2.64,2.11,4.28-1.17,1.69-2.51,3.59-1.86,6.48-8.12,1.3-15.94,2.56-23.59,3.78-1.89,3.61-3.25,6.94-1.78,10.73.51,1.33.23,2.64-.15,3.91-2.65,8.72-5.33,17.42-8.34,27.27-6.97-28.38-13.68-55.68-20.35-82.81.27-1.65,1.99-1.25,2.66-2.3-.93-1.54-2.91-1.14-4.1-2.16-1.23-1.13.76-1.57.41-2.98-1.91-.55-3.9-1.61-2.54-5.14,19.05,9.62,38.06,19.23,57.68,29.14Z"/>
      <path class="cls-1" d="M314.04,464.74c-2.16-4.78-2.8-9.93-4.03-14.87-3.87-15.6-7.4-31.28-11.04-46.94-.72-3.08-1.13-6.17-1.03-9.37.43-13.78.76-27.57,1.13-41.76,2.15,2.01,2.08,4.63,2.62,6.81,6.99,27.96,13.84,55.97,20.74,83.96.74,2.98.4,5.73-.43,8.73-1.45,5.23-3.81,9.71-7.97,13.43Z"/>
      <path class="cls-1" d="M300.24,543.04v-21.16c-1.24-1.77-2.85-.75-4.04-1.58v-31.81c4.61-1.35,9.04-.65,13.96-1.31-.23,7.94,2.31,13.44,11.39,13.39-1.12,13.36-2.23,26.53-3.33,39.61-8.42,3.49-8.45,3.49-17.98,2.84Z"/>
      <path class="cls-1" d="M286.7,512.91h-13.25v-58.17c4.89-1.2,9.49-.91,14.48-1.71-.15,20.21-.17,39.92-1.22,59.88Z"/>
      <path class="cls-1" d="M240.62,593.75c.16.88.28,1.53.46,2.51,5.63-4.15,11.25-5.63,16.72.44,2.05-2.01,4.24-3.43,6.96-3.88,5.44-.89,9.39,1.88,10.24,7.48.91,5.94.25,11.92.42,18-3.25,1.29-6.35.66-9.59.58-1.22-3.31-.41-6.64-.62-9.88-.1-1.66-.02-3.32-.04-4.99-.02-1.89-.83-3.33-2.81-3.46-1.89-.13-3.21,1.03-3.51,2.87-.32,1.96-.35,3.97-.39,5.96-.06,2.97-.02,5.94-.02,8.99-3.19,1.26-6.13.49-9.78.68,0-3.5,0-6.75,0-9.99,0-1.5.09-3-.02-4.49-.21-2.76-1.45-4.25-3.38-4.05-2.41.26-3.36,1.93-3.47,4.14-.1,1.82-.07,3.66-.08,5.48-.01,2.65,0,5.31,0,8.11-3.13,1.47-6.22.58-9.56.79v-25.28h8.49Z"/>
      <path class="cls-1" d="M318.74,611.14c.25,2.73.35,5.02-.09,7.62h-29.45v-34.99h28.84c.64,2.3.28,4.58.24,7.17-5.95.97-11.9-.06-17.69.56-1.01,1.52-.64,2.97-.39,4.72,5.31.99,10.78-.11,16.36.63.67,2.32.26,4.55.31,7.15h-16.15c-1.21,2.21-.71,4.14-.59,6.4,6.09,1.11,12.22-.13,18.61.75Z"/>
      <path class="cls-1" d="M375.27,595.38c2.85-3.5,6.51-1.43,10.25-1.83,0,8.99.26,17.62-.11,26.21-.19,4.44-2.76,7.76-7.43,8.9-4.6,1.13-9.22,1.24-13.79-.06-4.52-1.28-5.81-3.13-6.17-8.84,3.61.77,7.31-.48,10.62,2.37,2.91,2.51,6.29.97,6.92-2.84.2-1.25.45-2.59-.27-3.81-7.45,3.59-11.97,3.11-15.52-1.61-3.58-4.76-3.51-13.63.13-17.76,3.69-4.17,9.07-4.43,15.37-.73ZM375.68,605.83c.07-3.23-2.06-6.04-4.55-6-2.32.03-4.18,2.56-4.22,5.74-.04,3.12,1.83,5.61,4.27,5.68,2.55.07,4.43-2.2,4.5-5.42Z"/>
      <path class="cls-1" d="M592.99,595.37c3.11-3.36,6.64-1.37,10.27-1.87,0,9.11.3,17.89-.12,26.64-.21,4.46-3.08,7.63-7.74,8.64-4.79,1.04-9.59,1.15-14.27-.39-3.96-1.3-5.32-3.77-4.99-8.72,3.73.87,7.67-.2,11.04,2.96,2.06,1.93,5.33.18,6.07-2.72.16-.64.21-1.32.21-1.98,0-.81-.1-1.63-.16-2.49-8.01,3.66-12.47,3.11-15.97-1.87-3.35-4.77-3.21-13.3.28-17.36,3.65-4.24,9.11-4.55,15.38-.83ZM584.71,605.14c-.23,3.31,1.72,6.08,4.31,6.12,2.4.03,4.19-1.99,4.42-4.99.25-3.24-1.59-6.11-4.1-6.4-2.41-.28-4.4,1.99-4.63,5.27Z"/>
      <path class="cls-1" d="M13.13,606.37v12.23c-3.7.86-7.12.27-10.8.45v-35.4c6.97-.32,13.92-.51,20.83.11,5.9.53,9,4.47,9.05,10.54.05,6.33-3.11,10.33-9.03,11.17-3.12.44-6.28.57-10.05.9ZM13.29,598.22c2.01.67,3.82.46,5.55.07,1.55-.35,2.62-1.52,2.76-3.13.16-1.79-.68-3.16-2.41-3.89-1.88-.79-3.78-.75-5.91-.42-.3,2.63-.34,5.02,0,7.38Z"/>
      <path class="cls-1" d="M335.6,618.85h-9.57v-25.14c2.68-.5,5.44-.18,7.86-.21,1.33.84.42,2.12,1.36,2.86.32-.16.82-.28,1.16-.59,1.9-1.76,4.12-2.77,6.68-3.02,5.2-.5,9.34,2.7,9.55,7.83.25,5.96.06,11.94.06,18.06-3.28.7-6.35.43-9.83.25,0-4.42.04-8.54-.01-12.66-.05-3.89-1.13-5.67-3.31-5.72-2.44-.05-3.87,1.99-3.94,5.84-.07,4.1-.02,8.21-.02,12.5Z"/>
      <path class="cls-1" d="M553.41,618.81h-9.68v-25.14h8.36c1.11.32-.18,2.08,1.22,2.76,1.69-1.43,3.54-2.8,5.82-3.4,6.11-1.6,11.16,1.97,11.36,8.24.17,5.31.04,10.63.01,15.95,0,.46-.22.92-.39,1.6h-9.44c0-2.64,0-5.24,0-7.83,0-1.99.07-3.99-.04-5.98-.16-3-1.48-4.62-3.5-4.52-2.05.1-3.58,1.76-3.67,4.57-.15,4.46-.04,8.93-.04,13.75Z"/>
      <path class="cls-1" d="M416.52,618.93h-9.5v-25.09c2.59-.85,5.49-.31,8.37-.22.19,1.02.34,1.82.51,2.75.45-.17.96-.22,1.28-.49,3.08-2.66,6.47-3.92,10.56-2.71,3.41,1.01,5.59,3.3,5.74,6.72.28,6.25.08,12.52.08,18.97h-9.77c0-3.08,0-6.02,0-8.95,0-1.33.03-2.66,0-3.99-.11-3.57-1.08-5.22-3.12-5.4-2.48-.21-4.05,1.83-4.12,5.64-.08,4.12-.02,8.25-.02,12.77Z"/>
      <path class="cls-1" d="M24.58,651.49h-12.08c-1.11.58-1.12,1.67-1.52,2.55-1.42,3.14-2.86,3.96-5.24,3.06-2.43-.91-3.08-2.47-1.96-5.68,1.8-5.17,3.76-10.28,5.67-15.41,1.04-2.79,2.07-5.59,3.19-8.36,1-2.49,2.71-4.19,5.58-4.22,2.84-.02,4.74,1.56,5.7,4.04,3.1,8.05,6.13,16.12,9.02,24.24,1.01,2.83.19,4.6-1.96,5.4-1.75.65-3.37.33-4.39-1.27-.79-1.23-1.24-2.68-1.99-4.36ZM14.56,644.39c2.63-.14,5.05.39,7.7-.37-1.23-4.05-2.41-7.93-3.72-12.23-1.9,4.2-3.12,8.12-3.98,12.6Z"/>
      <path class="cls-1" d="M198.87,593.6h9.73c.58,3.58.15,7.2.28,10.78.04,1.16-.06,2.33.02,3.48.19,2.79,1.26,4.02,3.43,3.9,2.41-.13,3.52-1.63,3.63-3.91.08-1.49.04-2.99.04-4.48,0-3.12,0-6.25,0-9.64h9.77v24.9c-2.83.83-5.61.2-8.05.43-1.16-1.06-.67-2.2-1.17-3.17-.39.22-.82.4-1.18.66-.8.59-1.5,1.34-2.36,1.81-6.83,3.74-13.86-.13-14.11-7.87-.18-5.46-.03-10.93-.03-16.89Z"/>
      <path class="cls-1" d="M193.02,612.58c-5.17,9.32-21.35,9.79-26.64,1.03-4.27-7.06-1.85-18.56,8.88-20.56,3.89-.72,7.62-.29,11.27.94,4.4,1.48,8.78,6.78,6.97,14.54h-18.19c.14,4.43,3.01,6.7,6.28,4.57,4.01-2.62,7.53-.85,11.43-.52ZM183.6,603.85c-.31-3.95-1.44-5.28-4.33-5.21-2.92.07-4.02,1.52-3.92,5.36,2.75.15,5.5.34,8.25-.14Z"/>
      <path class="cls-1" d="M467.44,608.64h-18.62c.63,4.37,3.18,6.5,6.21,4.54,3.99-2.58,7.58-1.03,11.74-.65-1.68,4.4-5.08,6.1-9.08,6.75-2.27.37-4.65.31-6.96.18-7.48-.42-12.18-4.78-12.59-12.17-.43-7.79,4-12.77,10.56-14.17,3.89-.83,7.64-.42,11.29.77,4.22,1.37,8.74,5.82,7.44,14.76ZM457.6,603.88c-.95-4.27-2.25-5.52-4.98-5.24-2.6.27-3.53,1.58-3.64,5.27,2.76.32,5.51.32,8.63-.03Z"/>
      <path class="cls-1" d="M500.19,608.67h-18.13c0,4.23,2.9,6.58,6.16,4.44,4.03-2.65,7.56-.83,11.67-.55-3.29,6.61-8.99,7.07-14.95,7.03-5.57-.04-10.12-1.86-12.55-7.26-3.43-7.61-.16-17.46,9.51-19.27,3.89-.73,7.63-.34,11.27.92,5.13,1.78,8.72,7.53,7.01,14.69ZM490.46,604.03c-.68-4.27-1.93-5.58-4.7-5.4-2.59.17-3.54,1.37-3.94,5.17,2.74.57,5.48.26,8.64.23Z"/>
      <path class="cls-1" d="M47.99,608.52c1.2,4.71,3.75,6.59,6.72,4.59,3.99-2.68,7.53-.86,11.63-.53-3.34,6.58-9.03,7.05-15,7-5.58-.05-10.11-1.89-12.53-7.29-3.4-7.59-.16-17.43,9.56-19.25,3.89-.73,7.62-.3,11.27.94,4.55,1.54,8.76,6.93,6.99,14.53h-18.66ZM48.19,603.8c2.99.36,5.93.81,8.89-.33-1.21-3.98-2.22-4.95-4.78-4.83-2.62.12-3.52,1.21-4.11,5.16Z"/>
      <path class="cls-1" d="M129.32,619.6c-8.94-.05-14.57-5.25-14.52-13.43.04-8.05,5.87-13.61,14.59-13.51,10.08.12,15.14,6.15,14.74,14.25-.39,7.82-6.02,12.73-14.81,12.68ZM134.02,606.03c0-.66.07-1.34-.01-1.99-.36-2.69-2.15-4.47-4.47-4.5-2.15-.03-4.32,1.93-4.61,4.38-.18,1.47-.19,3-.01,4.47.33,2.79,2.05,4.37,4.5,4.41,2.44.04,4.21-1.57,4.59-4.29.12-.81.02-1.66.02-2.49Z"/>
      <path class="cls-1" d="M168.38,654.97c-6.02,3.58-10.91,2.94-14.88-1.74-4.01-4.72-4.02-12.71-.03-17.49,4.08-4.89,8.66-5.56,14.53-2.13.63.25.87-.3,1.16-.63,1.21-1.38,2.61-2.06,4.4-1.19,1.69.82,2.29,2.26,2.28,4.08-.03,5.48-.02,10.97,0,16.45,0,2.13-.49,4.04-2.67,4.88-2.11.82-3.42-.61-4.78-2.23ZM168.08,644.46c0-3.72-1.98-6.07-5.11-6.04-3.02.03-5.15,2.65-5.05,6.17.1,3.45,2.06,5.78,4.87,5.8,3.13.02,5.28-2.39,5.28-5.94Z"/>
      <path class="cls-1" d="M239.32,644.28c.07,7.35-5.15,12.97-12.17,13.11-7.04.14-12.51-5.29-12.69-12.6-.18-7.55,5.22-13.37,12.43-13.37,7.07,0,12.35,5.46,12.42,12.86ZM231.91,644.48c.03-3.42-2.32-6.13-5.25-6.05-2.72.07-4.77,2.6-4.81,5.91-.03,3.25,2.02,5.91,4.67,6.06,2.92.17,5.36-2.51,5.39-5.92Z"/>
      <path class="cls-1" d="M96.06,657.4c-7.04.01-12.4-5.51-12.46-12.82-.06-7.57,5.43-13.28,12.66-13.15,7.06.12,12.26,5.7,12.2,13.08-.06,7.36-5.37,12.88-12.39,12.89ZM101.05,644.62c.1-3.42-2.18-6.18-5.11-6.2-2.74-.02-4.86,2.45-4.95,5.77-.1,3.48,2.16,6.28,5.02,6.21,2.75-.07,4.94-2.58,5.03-5.77Z"/>
      <path class="cls-1" d="M288.35,447.7h-14.32v-27.37c4.87-.61,9.57-1.19,14.32-1.78v29.15Z"/>
      <path class="cls-1" d="M88.95,612.79c-.02,1.98.81,3.73.33,5.79-3.46,1.35-7.1,1.43-10.63.53-3.36-.86-4.54-3.69-4.61-6.92-.08-3.65-.02-7.31-.02-10.73-.9-1.5-2.33-.65-3.54-1.42-.66-1.87-.25-3.96-.26-5.7,1.11-1.39,2.58-.38,3.66-1.54.08-1.23.18-2.69.27-4.13,2.97-1.68,5.84-3.27,9.43-4.59v8.2c1.65,1.92,3.58.64,5.37,1.69.41,1.82.21,3.89.11,5.8-1.58,1.37-3.52.02-4.94,1.24v10.43c1.4,1.79,3.1.56,4.84,1.35Z"/>
      <path class="cls-1" d="M251.26,633.65c3.52-2.45,7.12-3.02,10.95-1.25,2.8,1.29,4.53,3.41,4.6,6.54.11,4.82.14,9.65.04,14.47-.06,2.62-1.36,3.92-3.48,3.99-2.07.07-3.52-1.27-3.68-3.82-.17-2.82-.04-5.65-.05-8.48,0-.83.06-1.67-.02-2.49-.31-3.38-1.81-5.19-4.25-5.17-2.48.02-3.99,1.81-4.13,5.2-.11,2.66,0,5.32-.04,7.99-.02,1.32-.03,2.68-.32,3.96-.41,1.79-1.62,2.9-3.57,2.8-1.93-.1-3-1.29-3.4-3.08-.18-.8-.15-1.66-.15-2.49-.01-4.83,0-9.65,0-14.48,0-2.2-.03-4.46,2.33-5.61,2.26-1.1,3.71.62,5.17,1.93Z"/>
      <path class="cls-1" d="M402.84,507.73c2.38-.35,3.21-3.44,6.15-1.71v17.6c-5.47.68-11.36.45-17.57.75-1.37-6.52-2.7-12.79-4.14-19.64,5.65,1.16,11.28-.72,15.57,2.99Z"/>
      <path class="cls-1" d="M286.18,543.12h-13.28c0-4.45,0-8.72,0-12.98s0-8.62,0-13.19c4.49-1.16,8.89-.16,13.28-.5v26.67Z"/>
      <path class="cls-1" d="M338.57,640.56c.92-.49,1.76-1.02,2.66-1.4,5.15-2.17,9.4.53,9.57,6.1.08,2.66,0,5.32.02,7.97.01,1.89.05,3.82-2.47,4.11-1.87.22-2.84-1.15-2.98-4.24-.08-1.82,0-3.65-.02-5.48-.02-1.86,0-3.82-2.47-4.17-1.96-.28-3.03,1.12-3.12,4.02-.07,2.16,0,4.32-.04,6.48-.04,1.85-.74,3.38-2.82,3.38-2.14,0-2.69-1.68-2.78-3.44-.1-1.99,0-3.99-.05-5.98-.04-1.98.25-4.36-2.65-4.43-2.85-.07-2.86,2.15-2.84,4.24.02,1.99.04,3.99-.01,5.98-.05,1.78-.53,3.49-2.61,3.63-2.42.16-3.04-1.68-3.08-3.65-.08-3.82-.16-7.65.01-11.46.16-3.45,1.1-3.98,4.67-2.75.92.32,1.58.22,2.28-.15,3.19-1.71,6.05-1,8.74,1.24Z"/>
      <path class="cls-1" d="M68.23,638.69c.07,1.68,1.33,1.95,2.34,2.43,1.64.78,3.4,1.35,4.96,2.26,5.1,2.96,5.11,9.42.08,12.53-3.62,2.25-10.36,1.92-13.73-.72-1.2-.94-2.29-2-1.58-3.78.76-1.9,2.32-2.35,4.06-1.95,1.44.33,2.77,1.08,4.17,1.6,1.6.58,2.93.46,3.54-1.69-1.3-2.19-3.95-2-5.9-3.06-2.67-1.46-5.32-2.82-5.3-6.5.01-2.72,1.1-4.78,3.22-6.4,3.3-2.52,8.55-2.75,12.19-.42,1.58,1.01,3.06,2.2,2.36,4.41-.6,1.89-2.29,2.41-5.01,1.55-1.81-.57-3.57-1.8-5.42-.26Z"/>
      <path class="cls-1" d="M49.18,649.69c-1.34-2.53-3.82-2.34-5.68-3.24-4.68-2.26-6.16-4.37-5.46-8.31.63-3.52,4.17-6.39,8.29-6.71,2.92-.23,5.65.42,7.96,2.23,1.19.94,2.14,2.24,1.34,3.91-.85,1.77-2.42,2.23-4.2,1.67-2-.62-3.87-2.08-6.07-.7-.3,1.64.96,1.98,1.96,2.45,1.79.86,3.71,1.48,5.41,2.48,4.87,2.87,4.92,9.09.18,12.27-3.65,2.45-10.75,2.15-14.14-.64-1.2-.99-2.17-2.13-1.37-3.85.86-1.86,2.46-2.15,4.18-1.73,1.27.31,2.48.93,3.69,1.45,1.56.67,2.89.61,3.91-1.28Z"/>
      <path class="cls-1" d="M158.81,618.86h-9.47v-35.13c3.06-.59,6.13-.12,9.47-.27v35.4Z"/>
      <path class="cls-1" d="M123.05,657.39c-4.5-.06-8.99-3.1-10.71-7.83-1.85-5.08-.53-11.49,3.05-14.74,3.9-3.55,10.41-4.49,14.86-2.16,2.08,1.09,3,3.07,2.2,4.91-.9,2.08-2.53,2.42-4.52,1.74-.63-.21-1.24-.47-1.87-.64-2.54-.7-4.64.05-6.05,2.22-1.48,2.28-1.49,4.76-.02,7.04,1.4,2.16,3.57,2.85,6.07,2.35.8-.16,1.55-.55,2.33-.84,1.59-.58,2.94-.27,3.86,1.2,1.08,1.73.41,3.22-.94,4.41-2.1,1.83-4.65,2.43-8.24,2.35Z"/>
      <path class="cls-1" d="M296.96,434.4c3.12,4.87,3.31,9.97,4.65,14.69,2.49,8.75,4.46,17.65,6.64,26.48.95,3.84.31,4.75-3.63,4.91-2.48.1-4.96.02-7.67.02v-46.1Z"/>
      <path class="cls-1" d="M523.2,594.2c-.44,2.18-1.45,4.05-2.47,6-.45.14-.89.39-1.34.4-4.17.08-5.36.96-5.81,4.98-.33,2.96-.26,5.97-.41,8.95-.07,1.3.34,2.66-.69,4.22-2.65.69-5.57.12-8.77.3v-25.31c2.71-.57,5.49-.18,7.97-.26,1.23.64.66,1.69,1.3,2.61,2.81-3.62,6.2-4.39,10.23-1.88Z"/>
      <path class="cls-1" d="M100.68,593.46c.24,1.09.38,1.73.6,2.76,2.91-3.77,6.3-4.53,10.26-2.07-.22,2.29-1.6,4.01-2.22,5.95-1.89,1.1-4.21-.47-5.73,1.38-1.6,1.95-1.72,4.24-1.79,6.58-.05,1.82-.13,3.65-.21,5.47-.07,1.63.23,3.29-.43,5.17-2.94.63-5.84.3-9.05.22v-25.2c2.73-.55,5.51-.18,8.57-.27Z"/>
      <path class="cls-1" d="M184.21,638.99c-1.99-.93-4.49-1.13-4.47-4,.02-2.79,2.21-3.32,4.35-4.03.07-1.49-.04-2.99.25-4.41.4-2,1.71-3.14,3.87-3.11,2.04.03,2.98,1.37,3.34,3.08.29,1.43.2,2.93.28,4.37,4.28.93,5.98,2.12,5.72,4.2-.4,3.24-3.09,3.35-5.85,3.51,0,4.18,0,8.12,0,12.07,0,1.16.11,2.35-.12,3.47-.4,1.96-1.54,3.29-3.75,3.25-1.98-.04-3.01-1.32-3.43-3.03-.27-1.1-.19-2.3-.19-3.45-.02-3.96,0-7.91,0-11.91Z"/>
      <path class="cls-1" d="M452.43,641.81c0,2.16.19,4.34-.04,6.48-.61,5.61-5.18,9.27-11.14,9.11-5.97-.16-10.28-4.06-10.54-9.75-.17-3.65-.12-7.32-.03-10.98.07-2.96,1.16-4.45,3.03-4.2,2.68.35,2.78,2.41,2.76,4.5-.02,3.16-.09,6.32.02,9.48.14,4.09,1.86,5.99,5.13,5.95,3.18-.04,4.95-2.08,5.07-6.08.09-3.32,0-6.65.03-9.98.02-1.98.53-3.84,2.9-3.85,2.37,0,2.89,1.84,2.92,3.82.03,1.83,0,3.66,0,5.49-.04,0-.08,0-.12,0Z"/>
      <path class="cls-1" d="M280.09,387.83h9.08v23.04c-4.57,1.05-8.79,1.49-13.72,1.94,1.58-8.5,3.08-16.56,4.65-24.98Z"/>
      <path class="cls-1" d="M409.71,525.79v16.79c-2.43.97-5.28.21-8.01.52-2.8.32-3.49-4.15-6.62-2.47-2.1-4.63-1.76-9.41-3.6-14.44,6.11-.44,11.78-.32,18.23-.39Z"/>
      <path class="cls-1" d="M286.77,639.87c1.37,2.05,3.81,1.79,5.74,2.56,4.63,1.85,6.22,3.76,5.85,7.51-.4,4.06-3.14,6.86-7.49,7.41-2.84.36-5.67.04-8.29-1.18-1.37-.64-2.67-1.6-2.05-3.46.61-1.83,1.99-1.9,3.64-1.53,1.61.36,3.03,1.36,4.79,1.25,1.47-.09,2.68-.52,3.09-2.01.45-1.66-.78-2.41-2.06-2.89-1.86-.71-3.83-1.13-5.65-1.93-3.86-1.7-4.99-6.08-2.57-9.5,2.63-3.73,9.86-4.99,13.57-2.34,1.02.73,1.71,1.69,1.11,2.97-.53,1.12-1.47,1.89-2.79,1.66-1.13-.19-2.22-.75-3.35-.88-1.73-.2-3.43-.08-3.53,2.37Z"/>
      <path class="cls-1" d="M307.14,649.41c1.49,2.85,3.26,3.25,5.34,2.87.8-.15,1.55-.56,2.34-.82,1.41-.45,3.03-1.17,3.93.59,1,1.96-.5,3.07-1.95,3.94-3.66,2.22-9.4,1.79-12.64-.88-3.05-2.52-4.05-6.91-2.48-10.87,1.46-3.69,5.45-6.14,9.49-5.83,3.99.31,7.35,3.11,8.2,6.83.65,2.83-.2,4.04-3.09,4.13-2.8.09-5.62.02-9.14.02Z"/>
      <path class="cls-1" d="M513.09,649.41c1.33,2.92,3.23,3.32,5.48,2.82.96-.21,1.87-.66,2.81-.99,1.37-.47,2.67-.49,3.31,1.08.51,1.26-.18,2.19-1.11,3.01-2.66,2.32-8.18,2.78-11.78.96-3.37-1.71-5.32-5.18-5.04-8.95.3-3.98,2.81-7.21,6.6-8.47,5-1.67,10.48,1.22,11.75,6.21.78,3.07-.07,4.24-3.32,4.33-2.75.08-5.5.02-8.7.02Z"/>
      <path class="cls-1" d="M394.66,648.01c0,2.16.18,4.34-.05,6.48-.27,2.5-1.97,3.59-4.14,2.34-1.48-.85-2.25-.42-3.51.04-3.52,1.27-6.93.06-9.2-3-2.55-3.43-2.62-8.25-.17-11.67,2.27-3.18,5.7-4.55,9.12-3.38,1.4.48,2.3,1.14,3.98.09,2.04-1.27,3.73,0,3.96,2.6.19,2.15.04,4.32.04,6.48h-.02ZM388.86,647.81c-.05-2.69-1.45-4.36-3.67-4.39-2.27-.02-3.9,2.08-3.74,4.84.13,2.44,1.46,4.04,3.41,4.13,2.39.11,4.06-1.8,4-4.59Z"/>
      <path class="cls-1" d="M399.56,618.87h-9.45v-25.11h9.45v25.11Z"/>
      <path class="cls-1" d="M537.43,618.86h-9.47v-25.11h9.47v25.11Z"/>
      <path class="cls-1" d="M423.62,525.66c.35,7.91.65,15.2.99,22.49.08,1.68.04,3.12-2.61,2.42-1.05-2.11.04-4.73-.84-7.09-2.95-.88-5.99.05-9.33-.7v-16.68c3.56-.8,7.43-.23,11.79-.43Z"/>
      <path class="cls-1" d="M593.4,648.61c1.39-3.36,2.28-5.62,3.26-7.85.72-1.63,1.78-2.98,3.81-2.08,1.78.79,2.27,2.17,1.45,4.08-2.93,6.83-5.78,13.69-8.69,20.53-.63,1.48-1.69,2.63-3.46,1.92-1.78-.71-2.75-2.18-1.53-3.94,3.06-4.43,1.25-8.42-.73-12.51-1.01-2.08-1.85-4.24-2.72-6.38-.68-1.67-.1-2.97,1.48-3.69,1.69-.76,2.82-.03,3.52,1.62,1.02,2.42,2.1,4.81,3.63,8.29Z"/>
      <path class="cls-1" d="M423.09,523.45h-11.77v-18.17c3.38-1.04,7.32-.47,11.77-.68v18.85Z"/>
      <path class="cls-1" d="M456.75,647.94c0-2.15-.13-4.32.04-6.46.14-1.82,1.44-3.81,3.09-2.87,2.26,1.29,3.81.5,5.84-.02,3.34-.86,8.24.74,8.28,6.08.02,3.15.05,6.3-.01,9.45-.04,1.83-.7,3.35-2.88,3.24-1.84-.1-2.5-1.42-2.54-3.08-.05-2.32-.02-4.64-.04-6.96-.02-2.02-.66-3.64-2.96-3.86-1.98-.19-3.02,1.17-3.12,4.06-.07,2.15.03,4.31-.07,6.46-.09,1.79-.76,3.41-2.86,3.37-2.06-.04-2.74-1.61-2.79-3.43-.06-1.99-.01-3.98-.01-5.97.01,0,.03,0,.04,0Z"/>
      <path class="cls-1" d="M415.96,649.45c0,1.82.1,3.65-.03,5.46-.11,1.49-.98,2.46-2.59,2.45-1.58,0-2.49-.95-2.63-2.42-.16-1.81-.09-3.64-.13-5.46-.02-1.16.09-2.35-.14-3.47-.33-1.59-1.33-2.7-3.13-2.57-1.73.12-2.74,1.15-2.8,2.88-.08,2.48.01,4.97-.07,7.46-.06,1.77-.63,3.48-2.69,3.54-2.36.06-2.97-1.73-2.99-3.73-.03-3.81-.15-7.63.04-11.44.17-3.41,1.25-4.02,4.71-2.72.92.34,1.48.16,2.25-.08,7.23-2.22,10.24.01,10.28,7.6,0,.83,0,1.66,0,2.49-.03,0-.06,0-.09,0Z"/>
      <path class="cls-1" d="M354.82,647.95c0-1.99-.14-3.99.03-5.97.28-3.19,1.59-4.11,4.44-2.73,1.36.66,2.07.13,3.11-.21,5.8-1.91,9.51.63,9.68,6.6.07,2.65.03,5.31,0,7.96-.02,1.96-.37,3.84-2.88,3.74-2.14-.09-2.56-1.76-2.57-3.56-.01-2.16,0-4.31-.01-6.47-.02-2.02-.66-3.64-2.95-3.87-1.98-.2-3.03,1.17-3.13,4.05-.08,2.15.03,4.31-.07,6.46-.09,1.78-.75,3.41-2.85,3.38-2.06-.03-2.74-1.6-2.8-3.42-.07-1.99-.01-3.98-.01-5.97Z"/>
      <path class="cls-1" d="M271.02,490.16v18.14h-12.35c-.98-5.84,1.07-11.46,1.88-17.44,3.52-.5,6.86-.95,10.47-.7Z"/>
      <path class="cls-1" d="M258.05,543.08v-15.3h12.65v15.3h-12.65Z"/>
      <path class="cls-1" d="M549.38,643.44c.59,2.33,2.62,2.15,4,2.87,3.14,1.65,4.49,3.66,3.96,6.16-.57,2.69-2.97,4.62-6.18,4.91-2.21.21-4.32-.25-6.26-1.29-1.22-.66-2.17-1.68-1.57-3.24.6-1.57,1.9-1.68,3.31-1.26,1.63.48,3.15,2.01,4.95.63.21-1.48-.75-1.74-1.72-2.12-1.38-.55-2.82-1.08-4.04-1.9-2.54-1.72-2.96-4.53-1.21-6.94,2.33-3.22,8.22-3.87,11.19-1.26.81.71,1.36,1.6.97,2.61-.47,1.23-1.45,1.59-2.84,1.25-1.37-.33-2.68-1.43-4.58-.45Z"/>
      <path class="cls-1" d="M144.85,643.92c0,2.99.11,5.99-.03,8.97-.14,3-1.43,4.46-3.59,4.5-2.24.04-3.75-1.31-3.84-4.27-.19-5.81-.19-11.63,0-17.44.1-2.95,1.61-4.3,3.86-4.25,2.15.05,3.45,1.55,3.59,4.51.13,2.65.03,5.32.03,7.97h0Z"/>
      <path class="cls-1" d="M208.79,644.61c0,2.66.09,5.32-.02,7.97-.14,3.31-1.47,4.89-3.8,4.81-2.2-.08-3.59-1.46-3.68-4.46-.17-5.64-.18-11.3-.01-16.94.09-3.18,1.73-4.74,4.09-4.56,2.09.16,3.28,1.68,3.4,4.7.11,2.82.02,5.65.02,8.47Z"/>
      <path class="cls-1" d="M180.41,395.66v-42.43c1.83-1.05,3.45-.93,5.11-.97.79,2.15.37,4.33.37,6.46.02,5.82-.24,11.66-.06,17.47.16,5.16-.07,10.17-3.24,14.49-.99,1.35-.27,3.3-2.19,4.98Z"/>
      <path class="cls-1" d="M496.8,647.46c.86-2.29,1.69-4.59,2.58-6.86.71-1.81,2-2.67,3.92-1.9,1.81.73,1.83,2.33,1.26,3.79-1.67,4.33-3.3,8.69-5.3,12.88-1.37,2.86-4.34,2.88-5.72.03-2.1-4.32-3.81-8.83-5.59-13.3-.69-1.74.29-2.9,1.85-3.51,1.53-.59,2.71.25,3.27,1.53,1.07,2.41,1.88,4.93,2.8,7.41.31-.02.62-.04.93-.06Z"/>
      <path class="cls-1" d="M261.97,374.57v-16.74c3.33-1.41,6.87-1.3,10.52-2.55v17.03c-3.14,1.5-6.79,1.33-10.52,2.26Z"/>
      <path class="cls-1" d="M578.99,643.94c0,3.45.03,6.59-.01,9.73-.03,1.73-.37,3.53-2.49,3.65-2.4.14-2.97-1.63-2.98-3.64-.01-3.14,0-6.28,0-9.58-.96-1.08-3.31-.88-3.31-3,0-1.99,1.35-2.82,3.04-2.82.63-2.37-.63-5.63,2.84-5.74,3.51-.11,2.63,3.06,3.09,5.46,1.47.66,4.17.32,4.16,2.96-.01,2.43-2.42,2.23-4.35,2.99Z"/>
      <path class="cls-1" d="M268.56,404.23c-2.4.29-4.5.55-6.97.85v-16.81h9.69c-.31,5.35-1.67,10.39-2.73,15.95Z"/>
      <path class="cls-1" d="M258.36,521.64v-10.93h12.61c.42,3.5.02,7.08-.12,10.93h-12.49Z"/>
      <path class="cls-1" d="M260.99,488.41c1.33-5.23,1.54-10.36,3.21-15.29,2.35-.51,4.61-.58,7.07-.32v15.15c-3.46.6-6.7.6-10.28.47Z"/>
      <path class="cls-1" d="M272.83,353.53c-3.78.7-7.02,1.3-10.54,1.96-.72-4.18-.3-8.21-.18-12.5,3.51-.76,6.85-1.48,10.44-2.26.58,4.31.22,8.38.28,12.8Z"/>
      <path class="cls-1" d="M528.63,647.55c0-1.49-.01-2.98,0-4.48,0-.66,0-1.34.13-1.98.29-1.38,1.74-3.21,2.4-2.53,2.92,2.98,6.98-2.79,9.33,1.46.76,1.38.09,2.93-1.38,3.16-5.08.82-5.05,4.36-4.76,8.18.06.82.04,1.66-.03,2.48-.14,1.78-.68,3.42-2.77,3.48-2.11.07-2.79-1.55-2.88-3.33-.11-2.15-.03-4.31-.03-6.46h-.03Z"/>
      <path class="cls-1" d="M289.92,382.94c-3.1-1.42-5.71-1.13-8.66-1.55,1.27-6.73,2.49-13.18,3.91-20.7,2.55,7.68,3.2,14.65,4.74,22.25Z"/>
      <path class="cls-1" d="M484.65,647.9c0,2.14.03,4.28,0,6.43-.03,1.69-.82,2.9-2.59,3.02-1.86.13-2.76-1.15-2.8-2.77-.11-4.44-.11-8.89,0-13.33.04-1.62.92-2.91,2.78-2.78,1.77.12,2.57,1.32,2.6,3.01.04,2.14.01,4.28.01,6.43Z"/>
      <path class="cls-1" d="M566.56,648.33c0,1.98.02,3.95,0,5.93-.02,1.69-.77,2.92-2.53,3.09-1.84.17-2.8-1.06-2.85-2.7-.12-4.44-.12-8.89-.03-13.33.03-1.6.85-2.93,2.73-2.85,1.79.08,2.62,1.26,2.66,2.94.06,2.31.01,4.61.02,6.92Z"/>
      <path class="cls-1" d="M261.38,407.13c2.39-.33,4.46-.61,6.87-.94-.93,4.86-1.72,9.4-2.68,13.9-.55,2.6-.67,2.57-4.19,2.93v-15.89Z"/>
      <path class="cls-1" d="M188.05,349.95c2.68,3.01,1.39,6.47,1.52,9.76.13,3.49-.08,6.98-.12,10.48-.04,3.33-.07,6.65-.09,9.98-.01,3.49,0,6.97,0,11.15-2.04-4.41-2.36-8.35-2.19-12.48.41-9.63.6-19.26.88-28.89Z"/>
      <path class="cls-1" d="M267.11,455.38c1.8-.7,3.03-.96,4.36-.32v15.19c-2.2.6-4.14.76-6.51.61-.65-5.35,2.06-10.18,2.15-15.48Z"/>
      <path class="cls-1" d="M274.74,340.8c2.41-.06,3.8.91,5.75,1.34-.94,4.54-1.78,8.86-2.75,13.16-.94,4.16-1.1,8.52-3,12.17v-26.67Z"/>
      <path class="cls-1" d="M261.59,376.55c3.72-.65,7.09-1.23,10.65-1.85.71,2.55.44,4.92.23,7.59h-10.64c-.73-1.57-.22-3.35-.25-5.74Z"/>
      <path class="cls-1" d="M255.06,543.23c-1.46.06-2.93.35-4.78-.31.81-6.39,2.27-12.64,4.15-18.79,1.9,3,1.92,14.88.62,19.1Z"/>
      <path class="cls-1" d="M399.54,590.14h-9.35c-.59-2.05-.32-3.99-.28-6.14,3.21-1.07,6.4-.27,9.64-.52.4,2.39.41,4.31,0,6.66Z"/>
      <path class="cls-1" d="M527.75,583.62h9.71c.36,2.17.41,4.2-.08,6.47h-9.11c-1.13-1.89-.43-3.98-.53-6.47Z"/>
      <path class="cls-1" d="M141.42,620.44c2.26.1,4.14,2.09,4,4.22-.14,2.14-2.24,3.9-4.47,3.75-2.3-.15-4.16-2.11-4.01-4.22.15-2.12,2.22-3.86,4.48-3.76Z"/>
      <path class="cls-1" d="M209.36,624.44c0,2.19-1.95,4.01-4.25,3.98-2.29-.03-4.26-1.89-4.24-4.01.02-2.13,1.96-3.94,4.28-3.97,2.28-.04,4.21,1.81,4.21,4Z"/>
      <path class="cls-1" d="M261.01,438.14v-12.2c1.05-.9,2.05-1.31,3.42-.55-.25,4.42-2.24,8.51-3.42,12.76Z"/>
      <path class="cls-1" d="M563.83,629.43c1.97.12,3.52,1.76,3.18,3.34-.34,1.57-1.35,2.62-3.11,2.63-1.67.02-3.39-1.55-3.17-3.06.26-1.87,1.43-2.87,3.11-2.91Z"/>
      <path class="cls-1" d="M478.78,632.24c.37-1.65,1.36-2.81,3.33-2.79,1.73.02,3.27,1.63,2.98,3.25-.29,1.6-1.29,2.64-3.04,2.7-1.66.06-3.31-1.47-3.27-3.16Z"/>
      <path class="cls-1" d="M254.43,522.25c.15-3.55.32-6.77,1.75-10.47.89,7.75.75,8.7-1.75,10.47Z"/>
    </g>
  </g>
</svg>