<?xml version="1.0" encoding="UTF-8"?>
<svg id="Layer_2" data-name="Layer 2" xmlns="http://www.w3.org/2000/svg" viewBox="0 0 1312.56 1321.32">
  <defs>
    <style>
      .cls-1 {
        stroke-width: 0px;
      }
    </style>
  </defs>
  <g id="Layer_1-2" data-name="Layer 1">
    <path class="cls-1" d="M.91,496.69c0-140.49.03-280.98-.04-421.47,0-14.74-.65-29.47-.83-44.21C-.05,23.77-.03,16.51.45,9.29.79,4.09,1.94,3.53,7.08,3.36c25.93-.87,51.86-.83,77.81-.78,176.07.35,352.14.31,528.21.14,207.02-.19,414.04-.63,621.07-1.06,7.2-.02,14.41-1.77,21.59-1.65,11.45.18,22.89,1.32,34.34,1.91,4.73.25,9.47.19,14.21.17,5.44-.01,7.38,1.36,7.78,6.75.44,5.97.57,11.99.41,17.98-.47,17.97-1.63,35.93-1.65,53.9-.11,124.24.11,248.48.03,372.72-.07,102.74-.53,205.48-.58,308.22-.01,35.98.86,71.96,1.04,107.94.12,23.49-.17,46.99-.5,70.48-.16,11.73-.52,23.47-1.35,35.17-.4,5.65-2.07,11.21-3.22,16.8-.25,1.22-.79,2.37-1.1,3.58-4.79,18.75-12.16,36.46-21.82,53.18-8.85,15.32-18.02,30.46-27.24,45.55-2.06,3.37-4.76,6.43-7.52,9.3-12.82,13.29-25.72,26.5-38.68,39.65-4.89,4.97-9.72,10.08-15.16,14.41-5.42,4.32-11.33,8.16-17.44,11.44-8.13,4.36-16.46,8.5-25.07,11.75-7.65,2.89-15.82,4.39-23.73,6.61-7.44,2.1-14.81,4.47-22.28,6.5-7.43,2.02-14.94,3.76-22.42,5.6-1.94.48-4.02.57-5.83,1.33-14.94,6.28-31.03,7.26-46.71,9.93-10.05,1.71-20.36,2.63-30.55,2.65-57.94.13-115.88-.24-173.82-.16-13.21.02-26.42,1.09-39.63,1.79-5.95.31-10.41,3.34-13.38,8.41-7.32,12.49-12.07,25.81-11.88,40.47.2,15.48.68,30.97,1.19,46.44.28,8.37-.71,9.68-9.1,9.71-20.98.07-41.96.08-62.94.02-7.59-.02-9.33-1.67-9.33-8.37.01-29.99.09-59.99.05-89.98-.01-8.3.54-16.47,3.14-24.42.69-2.12,1.18-4.39,1.28-6.61.71-15.76,8.85-27.69,19.46-38.41,9.32-9.41,18.52-18.98,30.17-25.58,7.62-4.32,15.48-8.06,24.52-8.43,31.19-1.29,62.37-2.69,93.55-3.97,35.43-1.46,70.85-2.88,106.28-4.23,24.2-.92,48.42-1.57,72.62-2.59,28.05-1.19,53.91-9.83,77.84-24.22,20.14-12.11,37.06-27.84,50.67-47.1,3.02-4.27,6.53-8.2,9.76-12.32,1.08-1.37,2.2-2.77,2.96-4.32,2.27-4.62.64-7.83-4.6-8.39-8.44-.91-16.91-1.49-25.38-2.09-23.41-1.66-46.82-3.27-70.23-4.86-8.97-.61-17.95-.99-26.91-1.69-18.17-1.41-36.32-2.97-54.48-4.47-30.84-2.55-61.68-5.27-92.54-7.61-23.65-1.79-47.33-3.07-70.99-4.67-7.97-.54-15.94-1.23-23.87-2.12-7.27-.81-12.28,1.84-16.21,8.12-10.97,17.53-26.81,30.07-43.73,41.36-12.04,8.03-25.65,12.59-39.53,15.55-29.06,6.21-58.37,6.72-87.85,2.24-12.99-1.97-25.5-5.41-37.36-10.6-23.43-10.24-44.3-24.2-58.18-46.48-4.94-7.94-11.04-10.87-20.51-10.05-40.04,3.47-80.13,6.34-120.21,9.34-29.87,2.24-59.75,4.24-89.61,6.52-24.64,1.88-49.25,4.12-73.89,5.97-24.64,1.85-49.31,3.41-73.97,5.09-1.24.09-2.52.02-3.73.27-4.99,1.04-6.58,4.34-4.26,8.84.57,1.1,1.33,2.12,2.11,3.09,9.64,11.78,18.76,24.04,29.09,35.18,16.7,18.02,36.99,30.86,59.93,39.92,22,8.69,44.64,11.78,68.1,12.13,26.21.39,52.39,2.08,78.6,3.03,30.94,1.13,61.9,2.02,92.84,3.12,26.2.92,52.43,1.59,78.59,3.15,13.06.78,25.78,4.54,36.07,13.03,10.76,8.87,21.3,18.19,30.79,28.38,7.9,8.48,11.53,19.53,13.77,31.05,4.24,21.81,3.29,43.76,3.07,65.75-.19,18.24.15,36.49.34,54.73.08,7.17-1.31,8.79-8.63,8.8-21.98.03-43.95.03-65.93-.04-7.68-.02-8.94-1.51-8.8-9.39.28-16.24.45-32.48.79-48.72.27-12.64-3.72-24.09-9.5-35.04-3.81-7.22-9.57-10.58-18.04-11.12-43.16-2.77-86.35-1.4-129.53-1.53-26.22-.08-52.47,1.15-78.64.15-18.12-.69-36.23-3.62-54.16-6.62-14.2-2.37-28.19-6.1-42.15-9.73-8.91-2.32-17.55-5.67-26.37-8.36-10.25-3.12-20.92-5.16-30.78-9.2-15.18-6.23-30.7-12.24-43.07-23.68-5.12-4.74-9.82-9.92-14.84-14.77-9.7-9.36-19.31-18.82-29.28-27.89-10.46-9.52-18.74-20.65-25.83-32.77-7.3-12.49-14.57-25.01-21.81-37.53-1-1.72-2.01-3.49-2.63-5.37-5.74-17.55-12.21-34.92-16.75-52.78-2.55-10.01-2.54-20.84-2.54-31.3,0-129.73.21-259.46.36-389.19.03-23.25,0-46.5,0-69.74h-.39ZM1209.36,541.51c0-97.99,0-195.99,0-293.98,0-22.99.27-45.98-.08-68.96-.22-14.47-.59-29.02-2.3-43.37-2.17-18.18-11.58-27.43-29.48-31.14-3.14-.65-6.45-.75-9.68-.75-34.46-.05-68.93-.02-103.39-.02-69.68,0-139.36,0-209.04,0-54.44,0-108.89-.04-163.33.02-4.96,0-9.94.49-14.89,1.02-4.67.5-9.28,1.65-13.95,1.96-5.47.36-10.98.12-16.48.12-148.85,0-297.7,0-446.54.01-21.23,0-42.46.09-63.68.13-12.43.02-21.6,5.76-27.41,16.48-3.35,6.17-5.48,13.03-5.04,20.16,1.33,21.44-2.75,42.75-.65,64.29,1.49,15.35.38,30.96.38,46.45,0,227.99-.02,455.98-.03,683.96,0,1.5-.06,3.01.05,4.5.5,6.67,2.8,8.94,9.53,8.63,12.72-.58,25.42-1.48,38.14-2.12,5.45-.27,9.82-2.46,12.26-7.29,4.37-8.67,9.11-17.28,12.27-26.41,3.82-11.06,6.24-22.61,9.11-33.99,1.12-4.46,2.83-7.64,8.09-8.37,17.3-2.39,34.53-5.26,51.82-7.71,9.6-1.36,10.94-3.47,6.68-11.94-.22-.45-.48-.88-.74-1.31-9.29-15.5-15.69-32.35-21.88-49.17-6.46-17.55-11.93-35.53-16.77-53.61-4.06-15.17-7.59-30.61-9.57-46.16-2.59-20.3-3.95-40.77-3.76-61.32.31-32.55,2.33-64.81,10.21-96.61,6.79-27.42,13.28-54.8,25.95-80.33,6.2-12.49,10.73-25.76,18.1-37.74,3.63-5.92,6.09-12.55,9.22-18.79,1.9-3.79,3.79-7.63,6.16-11.12,7.45-10.93,15.01-21.77,22.73-32.5,15.23-21.16,33.09-39.97,52.04-57.81,18.59-17.5,38.65-33.16,59.87-47.27,12.01-7.99,24.06-16.06,37.64-21.41,7.19-2.83,14.27-5.95,21.32-9.12,6.6-2.97,12.91-6.65,19.66-9.17,16.1-6.01,32.18-12.2,48.64-17.05,16.01-4.72,32.32-8.88,48.79-11.43,22.15-3.44,44.45-5.91,67.02-5.91,35.26,0,70.34.85,104.72,9.82,14.25,3.71,28.85,6.33,42.76,11.02,18.18,6.12,35.89,13.66,53.69,20.85,11.33,4.58,23.09,8.58,33.54,14.74,18.26,10.75,36.3,22.09,53.25,34.76,22.38,16.72,42.99,35.39,60.92,57.26,21.88,26.71,43.54,53.39,60.12,83.84,13.14,24.14,25.4,48.7,34.31,74.77,10.04,29.36,18.05,59.15,21.41,90.21,3.96,36.69,4.97,73.28.8,109.97-.76,6.7-1.54,13.4-2.62,20.05-3.07,19.01-7.82,37.59-13.36,56.07-6.83,22.8-14.52,45.18-25.01,66.55-3.19,6.5-6.54,12.93-9.63,19.48-2.66,5.63-1.22,8.4,4.82,9.7,2.19.47,4.45.64,6.67.97,16.79,2.48,33.58,4.98,50.37,7.43,4.54.66,7.04,3.17,7.96,7.67,1.54,7.59,3.18,15.16,5.01,22.68,3.22,13.21,8.83,25.47,15.53,37.23,2.54,4.46,5.99,8.06,11.63,8.41,11.96.73,23.92,1.62,35.89,2.11,5.73.23,8.36-1.9,9.44-7.5.75-3.88.74-7.95.74-11.93.03-129.99.03-259.99.03-389.98ZM710.52,490.05c-3.89-6.71-10.24-11.21-12.4-18.66-1.35-4.65-3.96-8.49-8.49-9.77-7.3-2.07-12.43-7.19-18.24-11.41-1.21-.88-2.24-2.41-3.54-2.65-2.04-.38-4.56-.57-6.27.33-2.53,1.32-2.48,4.15-1.49,6.66.54,1.37,1.28,2.75,2.24,3.87,4.36,5.1,8.28,10.68,15.06,13.07,1.66.59,3.02,2.05,4.7,3.23-2.71,2.76-4.61,1.18-6.5.14-2.39-1.32-4.6-3.12-7.14-3.98-6.64-2.25-11.79-6.23-16.03-11.76-3.8-4.96-7.23-5.65-12.16-2.04-4.51,3.31-9.09,4.8-14.67,3.97-3.58-.54-6.67,1.17-7.39,4.85-.8,4.06-3.51,5.9-6.72,7.37-5.76,2.65-8.85,7.28-9.74,13.31-1.26,8.6-6.41,12.8-14.49,15.04-5.94,1.64-10.74,1.22-16.26-1.85-7.24-4.03-9.1-6.41-7.45-14.46.65-3.16,1.19-6.38,1.34-9.59.37-7.84,1.34-8.96,9.36-9.19,5.74-.16,11.5.06,17.22-.3,5.73-.36,7.93-2.62,9.01-8.2,1.29-6.65-.4-12.42-5.34-17.06-1.38-1.3-3.2-2.12-5.91-3.86,6.18-3.16,10.43-5.13,14.45-7.47,2.75-1.6,5.38-3.53,7.73-5.68,6.22-5.68,12.24-11.59,18.42-17.32.87-.81,2.14-1.41,3.31-1.66,5.54-1.14,10.03-3.72,12.29-8.94,3.37,1.19,6.26,3.2,8.94,2.97,7.28-.63,15,2.03,21.87-2.84,1.58-1.12,4.32-.9,6.52-.83,8.77.3,11.86-2.2,13.61-11.12.36-1.84,1.25-3.57,1.81-5.12,8.78.21,8.93.21,9.08-7.74.07-4.09,2.39-4.93,5.72-5.31,2.92-.33,5.94-.7,8.62-1.78,1.17-.47,2.37-2.88,2.16-4.18-.21-1.28-2.1-3.06-3.41-3.21-3.16-.36-6.45-.1-9.63.29-2.96.36-5.83,1.5-8.78,1.79-3.57.35-7.06-.03-8.8-4.03-1.7-3.91-.98-7.66,2.31-10.89,1.78-1.74,3.82-3.24,5.48-5.09,1.92-2.14,3.18-4.74,1.33-7.48-1.78-2.65-4.77-3.05-7.39-1.97-2.37.98-5.42,2.57-6.22,4.64-1.76,4.55-4.91,7.1-8.66,9.79-7.57,5.43-8.18,11.75-2.55,18.81.44.56.64,1.31,1.17,2.45-1.05,1.43-2.35,2.9-3.3,4.57-1.08,1.91-2.25,3.92-2.65,6.02-1.51,7.95-3.53,9.69-12.07,9.88-2.72-4.89-5.19-9.77-8.09-14.37-2.32-3.68-4.36-4.05-8.24-2.1-1.77.89-3.26,2.65-5.09,3.06-2.26.51-5.25.88-7.02-.19-5.73-3.46-5.52-15.17.08-18.9,3.32-2.21,6.8-4.18,10.21-6.26,5.45-3.33,19.07-19.49,21.14-25.57,1.08-3.18,2.99-4.9,6.1-5.91,5.91-1.91,11.74-4.08,17.6-6.14,10.6-3.73,21.09-5.23,31.9-.22,3.48,1.61,7.87,1.14,11.74,2.05,7.24,1.71,14.44,3.65,21.59,5.71,1.43.41,2.57,1.84,4.21,3.07-7.35,6.62-16.13-1.26-23.13,3.29.06,4.32,3.09,6.44,5.26,9.06,2.41,2.91,5.03,6.77,8.91,5.95,4.4-.94,9.53-2.88,12.24-6.14,3.27-3.94,5.91-7.11,11.37-6.89,1.02.04,2.07-1.23,3.15-1.81,1.26-.68,2.69-1.95,3.84-1.76,4.57.76,7.54-1.92,10.79-4.23,4.77-3.39,9.94-5.35,15.94-5.6,7.17-.3,14.32-1.21,21.46-2.09,1.35-.17,2.85-1.17,3.78-2.22,3.35-3.78,7.37-3.65,11.7-2.53,4.35,1.12,8.68,2.32,13.07,3.25,2.41.51,5.05.88,6.42-2.75-.63-.77-1.25-1.82-2.14-2.53-1.36-1.07-3.1-1.71-4.35-2.88-3.34-3.12-3.36-10.5-.19-12.87,2.62-1.96,6.18-.66,9.33,3.5,2.71,3.58,5.23,7.32,8.06,10.8,3.54,4.36,6.59,8.71,3.1,14.41,5.93,2.39,8.08,1.83,10.3-2.35,2.44-4.57,1.69-7.82-2.89-12.55-4.4-4.54-4.49-7.41.64-10.93,2.69-1.85,6.31-2.35,10.01-3.63.86-1.33,1.94-3.26,3.27-5.02,3.26-4.31,3.15-6.7-1.09-9.8-2.61-1.91-5.54-3.37-8.3-5.06-19.17-11.79-38.71-22.96-60.22-29.89-24.45-7.87-49-15.48-73.76-22.28-12.93-3.55-26.33-5.76-39.65-7.45-26.8-3.4-53.74-3.47-80.75-2.72-22.83.64-45.11,5-67.59,8.08-6.15.84-12.29,2.36-18.2,4.29-20.38,6.65-40.66,13.59-60.96,20.48-4.72,1.6-9.54,3.09-13.98,5.29-11.39,5.66-22.62,11.66-33.86,17.61-2.75,1.45-7.05,2.36-6.18,6.42.99,4.7,5.47,3.3,8.8,3.22,11.75-.28,23.24-2.04,34.81-4.39,14.39-2.92,29.12-4.23,43.76-5.68,4.02-.4,8.36.78,12.32,2.01,5.59,1.73,10.95,4.19,16.67,6.44-.36.39-.85,1.31-1.62,1.71-6.52,3.39-10.18,8.21-9.2,16.05.76,6.1-2.2,10.44-7.47,13.5-3.21,1.86-6.14,4.19-9.29,6.38.09,1.93.17,3.86.26,5.74-2.87.62-5.42,1.17-7.82,1.69-.01,7.8-.54,8.14-7.58,9.79-10.91,2.56-21.81,5.2-31.75,10.75-6.95,3.88-14.09,7.42-21.11,11.17-1.31.7-2.53,1.62-3.64,2.6-7.83,6.93-15.53,14.01-23.45,20.85-7.3,6.31-14.07,4.85-17.62-4.2-2.08-5.29-2.82-11.11-4.16-16.68-1.31-5.45,1.11-9.21,5.53-11.96,1.9-1.19,4.1-1.91,5.94-3.17,5.92-4.04,5.8-12.23-.41-15.58-2.66-1.43-3.49-3.29-3.55-5.96-.05-2-.03-4-.19-6-.48-6.34-3.26-9.74-9.28-10.98-7.68-1.58-14.9-.81-21.1,4.64-4.5,3.96-8.95,7.98-13.63,11.72-6.34,5.05-11.88,10.22-12.92,19.16-.69,5.96-1.25,6.5,3.74,9.7,2.58,1.66,6.27,2.09,7.14,6.07-3.65,5.16-7.86,5.29-13.02,2.45-1.4-.77-4.6-.65-5.32.3-1.09,1.46-.92,4-.9,6.08,0,.84,1.34,1.62,1.49,2.52.34,2.04,1.06,4.51.26,6.11-1.17,2.33-3.7,1.52-6.01.82-1.72-.52-4.64-.93-5.43-.02-4.37,5.09-8.39,3.68-13.12.58-4.3-2.82-8.51-1.2-10.28,3.31-1.34,3.39-.54,6.48,1.81,9.04,2.35,2.56,3.19,5.36,3.31,8.82.27,7.72,5.15,10.57,12.11,7.14,3.25-1.6,6.19-3.83,9.9-6.17,2.71,4.38,5.37,8.16,4.44,13.32-.92,5.05,1.16,8.68,5.24,11.5,2.04,1.41,3.92,3.07,5.77,4.72,2.28,2.03,4.34,4.15,3.22,7.73-1.1,3.5-3.42,5.13-6.89,6.05-3.3.87-6.62,2.13-9.52,3.9-4.68,2.85-9.49,4.28-14.95,3.61-11.34-1.38-20.92,3.17-29.9,9.32-1.05.72-1.23,2.72-2.35,5.39,3.74-.41,6.12-.72,8.51-.92,2.58-.22,4.46.65,4.65,3.56.37,5.64,1.53,10.88,7.15,14.21-2.66.43-5.11,1.06-7,.31-4.46-1.78-8.16-.57-12.13,1.39-4.24,2.1-8.66,3.9-13.15,5.39-4.35,1.44-7.64,4.03-9.2,8.17-1.64,4.37-4.93,6.6-8.56,8.96-3.26,2.12-6.16,4.85-8.99,7.56-3.06,2.92-5.3,7.45-8.87,8.92-5.92,2.43-7.04,6.98-7.21,11.85-.2,5.56-2.87,9.17-6.41,12.94-2.45,2.62-4.82,6.04-5.53,9.45-4.37,21.02-8.6,42.09-10.04,63.59-.3,4.5.62,8.43,4.6,11.18.91.63,1.57,1.64,2.44,2.57q-8.17,4.4-6.81,13.45c.21,1.45.31,3.01.02,4.43-3.25,15.96-.45,31.83.7,47.71.17,2.39,1.31,4.75,3.96,4.58,1.66-.11,4.2-1.46,4.64-2.82,2.73-8.27,10.12-9.35,16.27-12,5.27,3.35-2.11,10.55,4.55,12.97.7-.43,1.29-.58,1.49-.95.46-.85.88-1.78,1.07-2.73,1.92-9.39,3.27-9.62,11.52-5.82,6.38,2.94,13.37,5.09,20.69,1.68,1.66-.77,4.52-.58,6.1.38,7.63,4.65,15.17,9.57,20.9,16.61,4.55,5.59,9.7,9.07,17.38,7.92,5.31-.8,10.12.66,14.82,3.79,7.79,5.18,9.75,13.51,12.74,21.27,2.23,5.77,7.51,10.94,13.61,10.97,6.1.03,11.35,2.33,16.03,5.55,6.09,4.18,12.71,5.74,19.77,5.62,4.81-.08,8.83,1.3,12.36,4.36,3.8,3.31,7.8,6.04,12.82,7.43,2.06.57,4.75,2.8,5.16,4.71,1.42,6.56,2.25,13.28-1.61,19.6-3.76,6.16-6.66,12.92-10.96,18.65-5.36,7.16-3.27,14.19-1.35,21.41.95,3.57,3.53,5.36,7.37,4.79,4.69-.7,9.43-1.17,14.03-2.24,16.3-3.8,32.63-7.22,49.35-8.84,28.3-2.74,56.34-2.26,83.92,5.42,5.03,1.4,9.84,3.56,14.82,5.14,11.27,3.59,21.63,9.03,31.54,15.37,10.54,6.75,20.47,14.2,28.73,23.81,5.17,6.02,8.72,5.7,14.42.03,4.07-4.05,8-8.25,12.23-12.11,2.75-2.51,6-4.46,8.94-6.76,5.34-4.18,5.82-6.04,3.1-12.14-1.43-3.19-3.3-6.19-4.58-9.44-1.45-3.67-3.16-7.44-3.53-11.28-.83-8.61,1.14-17,4.8-24.73,2.64-5.59,3.24-10.89,1.33-16.64-.55-1.65-1.3-3.42-1.18-5.08.5-7.1-2.56-13.09-5.35-19.26-3.53-7.81-7.76-15.09-13.86-21.19-4.15-4.15-6.18-8.81-4.31-14.93,1.15-3.78,1.58-7.86,1.78-11.83.48-9.71-5.79-15.81-15.33-14.5-4.49.62-7.15-.74-9.21-4.44-2.81-5.04-7.38-6.21-12.78-5.83-6.4.45-12.25,2.45-17.55,5.93-5.25,3.44-10.72,4.61-17.05,3.98-4.33-.43-9.53-.39-13.09,1.64-6.16,3.5-10.67,2.54-15.49-1.75-2.04-1.82-4.63-3.02-6.63-4.88-4.36-4.08-9.92-7.7-12.39-12.78-3.33-6.85-8.1-12.1-13.56-16.62-8.09-6.68-8.67-14.83-5.86-23.58,3.35-10.43,3.61-20.62-.23-30.81-1.35-3.59-1.11-6.74.42-10.1,2.28-5,4.57-10.01,6.55-15.13,3.33-8.62,8.48-15.67,16.14-20.97,6.2-4.29,10.49-9.94,10.8-17.91.24-6.15,3.1-10.84,7.77-14.76,2.64-2.22,5.23-4.74,7.08-7.61,2.27-3.53,4.92-4.37,8.84-3.7,6.35,1.09,12.41,0,17.92-3.56,7.97-5.16,16.82-7.1,26.21-7.66,6.2-.37,12.38-1.42,18.49-2.57,7.34-1.38,10.16,1.17,8.88,8.64-.21,1.22-.63,2.42-1.03,3.6-1.29,3.78.15,6.53,3.59,7.91,4.12,1.66,8.43,2.87,12.69,4.16,2.12.64,5.19.32,6.33,1.69,4.91,5.9,12.32,6.27,18.54,9.15,6.06,2.81,9.3,1.08,11.21-5.25,2.53-8.4,3.76-9.04,12.28-6.33,1.9.61,3.77,1.4,5.71,1.81,7.3,1.53,14.66,4.25,21.92,4.02,6.82-.22,13.69-1.69,20.66-1.54,4.51.1,7.41-2.26,8.8-6.67,2.34-7.45,4.07-14.92,3.05-22.83-.95-7.31-3.78-9.39-10.55-6.63-3.9,1.59-7.38,2.48-11.47.7-1.62-.71-3.9-.41-5.76,0-9.24,2.03-14.07-.67-17.21-9.61-1.15-3.28-2.34-6.66-4.22-9.53-3.03-4.63-10.32-4.67-16.13-.51-3.28,2.35-3.46,4.18.01,9.55,1.97,3.04,1.36,5.01-2.62,7.81ZM867.17,787.09c2.62,6.42,3.52,10.56,1.7,15.55-2.39,6.53-3.59,13.49-5.38,20.25-.84,3.16.23,5.51,3.05,6.82,2.24,1.04,4.66,1.85,7.08,2.33,5.88,1.17,11.82,1.99,17.7,3.12,16.68,3.2,33.28,6.78,50.02,9.65,29.03,4.97,58.13,9.49,87.2,14.24,7.94,1.3,10.95-.18,14.28-7.35.74-1.58,1.3-3.27,2.18-4.76,10.68-18.17,18.46-37.67,25.76-57.35,10.72-28.91,17.7-58.82,22.43-89.25,3.73-24.04,3.89-48.31,3.48-72.57-.12-7.24-.47-14.49-1.21-21.69-.79-7.62-2.01-8.7-8.3-10.34-2.68-5.36-4.59-10.58-7.65-14.99-4.1-5.91-9.06-11.22-13.73-16.72-.77-.91-1.89-1.69-3.01-2.1-2.54-.94-20.08,4.43-21.76,6.49-.16.19-.36.38-.43.61-2.34,8.03-9.04,13.03-13.65,19.46-3.46,4.83-7.39,9.51-11.85,13.4-4.45,3.87-5.64,7.83-3.79,13.23,2.72,7.93.25,15.85-.84,23.63-.56,3.96-3.42,7.62-8.21,10.06-1.41-2.17-3.03-4.03-3.95-6.19-4.9-11.44-10.01-22.8-14.28-34.48-3.59-9.81-6.23-19.97-9.08-30.04-1.69-5.97-2.95-6.82-8.12-4.43-5.5,2.56-6.76,2.33-9.13-3.21-1.68-3.94-4.24-6.61-7.89-8.6-1.73-.94-3.68-2.04-4.7-3.61-4.94-7.58-12.03-9.08-20.28-7.82-3.2.49-6.4,1.27-9.62,1.34-9.4.2-19.02,1.27-26.72-6.35-1.31-1.3-4.22-2.07-6.02-1.61-11.54,2.93-19.16-2.7-25.74-11.06-1.23-1.56-2.37-3.27-3.88-4.53-2.96-2.47-7.01-2.6-9.73-.64-3.04,2.2-4.26,6.43-2.28,10.04,1.41,2.58,3.53,4.8,5.49,7.05,4.53,5.19,9.38,10.1,13.66,15.48,5,6.28,11,7.35,17.32,2.39,1.89-1.49,3.61-3.2,4.71-4.19,5.78,3.63,10.79,6.68,15.7,9.89,4.39,2.87,5.04,6.15,2.31,10.89-1.24,2.15-3.07,4.09-3.79,6.39-2.98,9.54-9.62,15.44-18.3,19.59-1.99.95-4.44,2-5.45,3.72-3.27,5.58-8.52,8.11-13.98,10.68-6.99,3.29-13.82,6.93-20.71,10.42-5.65,2.86-6.4,2.44-8.52-3.47-3.35-9.3-4.31-19.6-11.48-27.33-2.71-2.92-5.28-6-7.53-9.28-2.5-3.63-5.17-7.33-6.67-11.41-1.86-5.03-4-9.58-7.95-13.33-2.14-2.03-3.74-4.66-5.46-7.1-2.44-3.47-4.67-7.1-7.18-10.51-3.42-4.64-7.85-6.64-14.64-4.52.84,2.97,1.05,6.03,2.47,8.35,6.22,10.11,8.73,22.3,17.41,31.03,1,1,1.84,2.6,1.94,3.98.61,8.16,4.5,14.63,9.81,20.51,1.15,1.27,2.22,2.88,2.61,4.51,1.64,6.79,6.11,10.91,11.64,14.86,5.71,4.09,11.72,8.29,12.94,16.57.63,4.29,6.85,7.02,11.54,5.97,6.08-1.37,12.06-3.2,18.1-4.77,9.58-2.49,11.15-.85,8.38,8.86-.75,2.63-1.9,5.14-2.89,7.7-.99,2.55-2.17,5.04-2.96,7.65-3.42,11.19-9.04,20.7-17.61,29.06-12.43,12.12-25.16,24.32-30.2,41.99-1.22,4.29-1.89,8.02.17,12.25,1.26,2.6,1.44,5.74,2.02,8.65.53,2.69.23,5.8,1.51,8.02,5.17,8.93,4.25,18.86,5.39,28.46.62,5.19-1.6,9.23-5.31,12.59-1.85,1.68-3.99,3.07-5.63,4.92-3.38,3.79-2.2,7.15,2.82,7.79,6.93.89,13.89,1.65,20.87,2.05,7.11.41,8.5-.81,9.87-8.09.89-4.76,2.87-8.49,7.57-10.33,4.93-1.93,8.06-5.65,10.58-10.14,1.4-2.49,3.25-4.73,5.81-8.38ZM1092.77,945.15c0-.08.02-.17.02-.25,4.24.24,8.48.75,12.71.66,6.63-.14,8.65-2.89,7.05-9.06-.31-1.2-.88-2.34-1.29-3.51-2.2-6.37-4.94-12.61-6.43-19.14-1.58-6.92-5.56-10.23-12.17-11.29-10.59-1.71-21.12-3.97-31.77-5.21-33.48-3.91-66.76-9.03-99.88-15.23-9.08-1.7-18.16-3.39-27.25-5.07-31.17-5.75-62.35-11.42-93.5-17.26-35.64-6.69-70.8-7.92-105.27,6.39-17.34,7.2-33.15,16.34-45.65,30.45-7.52,8.49-13.53,17.91-14.28,29.86-.2,3.14-1.25,6.43-2.68,9.26-4.01,7.96-13.34,11.19-21.03,7.41-5.61-2.76-8.55-7.79-9.25-13.73-2.28-19.26-13.26-32.87-27.68-44.57-18.38-14.91-39.95-22.79-62.62-27.11-25.5-4.86-51.16-3.41-76.63,2.07-29.28,6.29-58.62,12.34-88.03,17.98-15.92,3.05-32.03,5.09-48.07,7.48-24.69,3.68-49.39,7.25-74.08,10.92-13.58,2.02-27.13,4.18-40.71,6.18-6.73.99-10.59,4.7-12.36,11.29-1.68,6.25-3.6,12.5-6.12,18.45-4.15,9.79-1.69,13.64,8.91,12.98.5-.03.99-.11,1.49-.15,29.86-2.23,59.72-4.43,89.57-6.7,41.57-3.16,83.13-6.34,124.69-9.59,32.6-2.55,65.18-5.22,97.78-7.81,18.17-1.44,29.93,6.11,36.65,23.05,4.12,10.38,10.35,19.45,19.16,26.37,15.33,12.05,32.76,18.58,52.34,19.75,12.23.73,24.35.81,36.6.14,10.9-.6,21.29-2.53,31.35-6.44,21.61-8.4,37.54-22.4,44.19-45.46,1.59-5.5,5.11-9.57,9.91-12.7,6.37-4.16,13.31-5.39,20.75-4.82,14.69,1.13,29.38,2.19,44.07,3.33,38.58,2.99,77.15,6.03,115.73,9.01,43.8,3.37,87.6,6.68,131.4,10.05,7.47.57,14.92,1.35,22.37,2.03Z"/>
    <path class="cls-1" d="M594.78,420.53c-3.72-.36-5.82-2.08-7.42-5.01-1.64-3-.44-4.96,1.46-7.33,4.43-5.53,3.89-8.18-1.78-12.19-1.63-1.15-3.4-2.18-4.74-3.61-2.32-2.48-2.48-5.37-.57-8.23,2.36-3.52,6.26-3.91,7.66-.13,3.5,9.44,10.66,16.14,16.23,24.03,2.33,3.29,2.03,6.1-1.42,8.34-2.83,1.84-6.25,2.78-9.41,4.12Z"/>
    <path class="cls-1" d="M519.17,342.38c9.16-1.35,17.65-2.66,26.16-3.73.83-.1,1.85,1.32,3.37,2.48-1.58,1.47-2.57,2.96-3.95,3.58-4.31,1.94-8.69,3.8-13.18,5.25-5.74,1.85-9.81-.44-12.4-7.57Z"/>
    <path class="cls-1" d="M343.34,451.1c.61-5.09,3.51-7.52,6.19-9.92.88-.79,2.92-1.06,4.05-.61,2.72,1.07,5.49,2.37,7.7,4.23,1.25,1.06,2.2,3.58,1.84,5.09-.26,1.1-2.91,2.29-4.49,2.28-4.88-.04-9.75-.63-15.29-1.06Z"/>
    <path class="cls-1" d="M564.15,413.6c-.71-5.94,3-13.01,7.49-14.9,2.95-1.24,5.33.73,4.97,4.1-.67,6.27-4.28,9.5-12.46,10.8Z"/>
    <path class="cls-1" d="M810.85,276.45c-.6,1.02-1.06,2.17-1.84,3.04-2.99,3.35-6.05,6.53-6.64,11.38-.33,2.69-2.38,3.76-4.99,2.63-2.38-1.03-2.46-3.1-1.34-5,2.13-3.61,4.17-7.39,6.93-10.48,1.56-1.75,4.48-2.28,6.79-3.36.36.6.73,1.19,1.09,1.79Z"/>
    <path class="cls-1" d="M668.82,267.36c-.69,3.19-2.44,5.76-5.81,6.46-1.28.27-3.14-.71-4.19-1.7-.38-.36.43-3.03,1.33-3.55,2.34-1.34,5.02-2.07,7.57-3.05.37.61.74,1.22,1.11,1.83Z"/>
    <path class="cls-1" d="M258.44,629.61c-3.66,1.2-6.04,2.32-8.51,2.63-.96.12-2.79-1.41-3.05-2.48-.21-.87,1.11-2.71,2.16-3.15,2.83-1.2,5.69-1.1,9.4,3Z"/>
    <path class="cls-1" d="M642.88,388.1c.19-1.37.38-2.73.57-4.1.53.08,1.07.16,1.6.24-.22,1.36-.44,2.72-.66,4.08l-1.5-.23Z"/>
    <path class="cls-1" d="M1018.58,650.57c5.42,2.76,5.51,2.98,3.64,9.19-4.92-1.38-5.72-3.41-3.64-9.19Z"/>
  </g>
</svg>